# xmcd
#
# Track frame offsets: 
#        150
#        23960
#        42042
#        67442
#        94931
#        98658
#        120621
#        141635
#        161574
#
# Disc length: 2616 seconds
#
# Revision: 0
# Processed by: cddbd v1.5.2PL0 Copyright (c) Steve Scherf et al.
# Submitted via: ExactAudioCopy v0.99pb5
#
DISCID=800a3609
DTITLE=The Chair - The Chair
DYEAR=2008
DGENRE=Rock
TTITLE0=House
TTITLE1=September
TTITLE2=Slither
TTITLE3=Barn Burner
TTITLE4=Sparkle
TTITLE5=Amp251
TTITLE6=The Riff
TTITLE7=Shamrock City
TTITLE8=Winter Garden
EXTD=
EXTT0=
EXTT1=
EXTT2=
EXTT3=
EXTT4=
EXTT5=
EXTT6=
EXTT7=
EXTT8=
PLAYORDER=
